name rise44.9368peak50.754fall52.0217.mot
datacolumns 19
datarows 24
range 8.19497700000000 8.23330800000000
endheader
time	ground_force1_vx	ground_force1_vy	ground_force1_vz	ground_force1_px	ground_force1_py	ground_force1_pz	ground_force2_vx	ground_force2_vy	ground_force2_vz	ground_force2_px	ground_force2_py	ground_force2_pz	ground_torque1_x	ground_torque1_y	ground_torque1_z	ground_torque2_x	ground_torque2_y	ground_torque2_z	
8.19497700000000	1.64347600000000	697.93378600000005	49.68516500000000	0.28502600000000	0.00000000000000	0.12247400000000	0.00000000000000	0.00000000000000	0.00000000000000	0.00000000000000	0.00000000000000	0.00000000000000	0.00000000000000	27.74444900000000	0.00000000000000	0.00000000000000	0.00000000000000	0.00000000000000	
8.19663900000000	0.97676600000000	698.63877200000002	49.72130400000000	0.28413900000000	0.00000000000000	0.12242300000000	0.00000000000000	0.00000000000000	0.00000000000000	0.00000000000000	0.00000000000000	0.00000000000000	0.00000000000000	27.83536000000000	0.00000000000000	0.00000000000000	0.00000000000000	0.00000000000000	
8.19830600000000	0.30121400000000	699.37254399999995	49.76568000000000	0.28325000000000	0.00000000000000	0.12237100000000	0.00000000000000	0.00000000000000	0.00000000000000	0.00000000000000	0.00000000000000	0.00000000000000	0.00000000000000	27.93290800000000	0.00000000000000	0.00000000000000	0.00000000000000	0.00000000000000	
8.19997700000000	-0.38318000000000	700.13477799999998	49.81823100000000	0.28235900000000	0.00000000000000	0.12232000000000	0.00000000000000	0.00000000000000	0.00000000000000	0.00000000000000	0.00000000000000	0.00000000000000	0.00000000000000	28.03694700000000	0.00000000000000	0.00000000000000	0.00000000000000	0.00000000000000	
8.20163800000000	-1.07638200000000	700.92519600000003	49.87888500000000	0.28146400000000	0.00000000000000	0.12227000000000	0.00000000000000	0.00000000000000	0.00000000000000	0.00000000000000	0.00000000000000	0.00000000000000	0.00000000000000	28.14732200000000	0.00000000000000	0.00000000000000	0.00000000000000	0.00000000000000	
8.20330900000000	-1.77832800000000	701.74356399999999	49.94756300000000	0.28056500000000	0.00000000000000	0.12222000000000	0.00000000000000	0.00000000000000	0.00000000000000	0.00000000000000	0.00000000000000	0.00000000000000	0.00000000000000	28.26386900000000	0.00000000000000	0.00000000000000	0.00000000000000	0.00000000000000	
8.20497200000000	-2.48892300000000	702.58968500000003	50.02418000000000	0.27966100000000	0.00000000000000	0.12217100000000	0.00000000000000	0.00000000000000	0.00000000000000	0.00000000000000	0.00000000000000	0.00000000000000	0.00000000000000	28.38641600000000	0.00000000000000	0.00000000000000	0.00000000000000	0.00000000000000	
8.20663900000000	-3.20803700000000	703.46339999999998	50.10863800000000	0.27875200000000	0.00000000000000	0.12212200000000	0.00000000000000	0.00000000000000	0.00000000000000	0.00000000000000	0.00000000000000	0.00000000000000	0.00000000000000	28.51478300000000	0.00000000000000	0.00000000000000	0.00000000000000	0.00000000000000	
8.20830800000000	-3.93551300000000	704.36458400000004	50.20083300000000	0.27783600000000	0.00000000000000	0.12207400000000	0.00000000000000	0.00000000000000	0.00000000000000	0.00000000000000	0.00000000000000	0.00000000000000	0.00000000000000	28.64878200000000	0.00000000000000	0.00000000000000	0.00000000000000	0.00000000000000	
8.20997800000000	-4.67115800000000	705.29313900000000	50.30065000000000	0.27691300000000	0.00000000000000	0.12202700000000	0.00000000000000	0.00000000000000	0.00000000000000	0.00000000000000	0.00000000000000	0.00000000000000	0.00000000000000	28.78821500000000	0.00000000000000	0.00000000000000	0.00000000000000	0.00000000000000	
8.21164400000000	-5.41474900000000	706.24899500000004	50.40796700000000	0.27598200000000	0.00000000000000	0.12198000000000	0.00000000000000	0.00000000000000	0.00000000000000	0.00000000000000	0.00000000000000	0.00000000000000	0.00000000000000	28.93287900000000	0.00000000000000	0.00000000000000	0.00000000000000	0.00000000000000	
8.21330900000000	-6.16603300000000	707.23210099999994	50.52265000000000	0.27504400000000	0.00000000000000	0.12193500000000	0.00000000000000	0.00000000000000	0.00000000000000	0.00000000000000	0.00000000000000	0.00000000000000	0.00000000000000	29.08256100000000	0.00000000000000	0.00000000000000	0.00000000000000	0.00000000000000	
8.21497100000000	-6.92472500000000	708.24242400000003	50.64455700000000	0.27409700000000	0.00000000000000	0.12189000000000	0.00000000000000	0.00000000000000	0.00000000000000	0.00000000000000	0.00000000000000	0.00000000000000	0.00000000000000	29.23704400000000	0.00000000000000	0.00000000000000	0.00000000000000	0.00000000000000	
8.21664300000000	-7.69051100000000	709.27994300000000	50.77353400000000	0.27314000000000	0.00000000000000	0.12184500000000	0.00000000000000	0.00000000000000	0.00000000000000	0.00000000000000	0.00000000000000	0.00000000000000	0.00000000000000	29.39610000000000	0.00000000000000	0.00000000000000	0.00000000000000	0.00000000000000	
8.21830200000000	-8.46304700000000	710.34464400000002	50.90942200000000	0.27217500000000	0.00000000000000	0.12180200000000	0.00000000000000	0.00000000000000	0.00000000000000	0.00000000000000	0.00000000000000	0.00000000000000	0.00000000000000	29.55949700000000	0.00000000000000	0.00000000000000	0.00000000000000	0.00000000000000	
8.21996900000000	-9.24195900000000	711.43651599999998	51.05204700000000	0.27120000000000	0.00000000000000	0.12175900000000	0.00000000000000	0.00000000000000	0.00000000000000	0.00000000000000	0.00000000000000	0.00000000000000	0.00000000000000	29.72699700000000	0.00000000000000	0.00000000000000	0.00000000000000	0.00000000000000	
8.22164000000000	-10.02684600000000	712.55554500000005	51.20123100000000	0.27021400000000	0.00000000000000	0.12171700000000	0.00000000000000	0.00000000000000	0.00000000000000	0.00000000000000	0.00000000000000	0.00000000000000	0.00000000000000	29.89835500000000	0.00000000000000	0.00000000000000	0.00000000000000	0.00000000000000	
8.22330400000000	-10.81728200000000	713.70171000000005	51.35678300000000	0.26921900000000	0.00000000000000	0.12167600000000	0.00000000000000	0.00000000000000	0.00000000000000	0.00000000000000	0.00000000000000	0.00000000000000	0.00000000000000	30.07332200000000	0.00000000000000	0.00000000000000	0.00000000000000	0.00000000000000	
8.22497000000000	-11.61281000000000	714.87497800000006	51.51850500000000	0.26821300000000	0.00000000000000	0.12163500000000	0.00000000000000	0.00000000000000	0.00000000000000	0.00000000000000	0.00000000000000	0.00000000000000	0.00000000000000	30.25164200000000	0.00000000000000	0.00000000000000	0.00000000000000	0.00000000000000	
8.22663700000000	-12.41295200000000	716.07529799999998	51.68619300000000	0.26719700000000	0.00000000000000	0.12159500000000	0.00000000000000	0.00000000000000	0.00000000000000	0.00000000000000	0.00000000000000	0.00000000000000	0.00000000000000	30.43305600000000	0.00000000000000	0.00000000000000	0.00000000000000	0.00000000000000	
8.22830300000000	-13.21720400000000	717.30259599999999	51.85963000000000	0.26617000000000	0.00000000000000	0.12155600000000	0.00000000000000	0.00000000000000	0.00000000000000	0.00000000000000	0.00000000000000	0.00000000000000	0.00000000000000	30.61730100000000	0.00000000000000	0.00000000000000	0.00000000000000	0.00000000000000	
8.22997200000000	-14.02503800000000	718.55677200000002	52.03859800000000	0.26513300000000	0.00000000000000	0.12151800000000	0.00000000000000	0.00000000000000	0.00000000000000	0.00000000000000	0.00000000000000	0.00000000000000	0.00000000000000	30.80411100000000	0.00000000000000	0.00000000000000	0.00000000000000	0.00000000000000	
8.23163900000000	-14.83590700000000	719.83769299999994	52.22286700000000	0.26408600000000	0.00000000000000	0.12148000000000	0.00000000000000	0.00000000000000	0.00000000000000	0.00000000000000	0.00000000000000	0.00000000000000	0.00000000000000	30.99321700000000	0.00000000000000	0.00000000000000	0.00000000000000	0.00000000000000	
8.23330800000000	-15.64924000000000	721.14518699999996	52.41220400000000	0.26302900000000	0.00000000000000	0.12144300000000	0.00000000000000	0.00000000000000	0.00000000000000	0.00000000000000	0.00000000000000	0.00000000000000	0.00000000000000	31.18434500000000	0.00000000000000	0.00000000000000	0.00000000000000	0.00000000000000	
